<?xml version="1.0" encoding="UTF-8"?>
<svg id="Layer_2" data-name="Layer 2" xmlns="http://www.w3.org/2000/svg" viewBox="0 0 164.09 66.05">
  <defs>
    <style>
      .cls-1 {
        fill: #0a213c;
      }

      .cls-2 {
        fill: #fff;
      }

      .cls-3 {
        fill: #71f088;
      }
    </style>
  </defs>
  <g id="Capa_1" data-name="Capa 1">
    <g>
      <g>
        <path class="cls-3" d="M52.12,63.94l1.26-6.52h1.39l-.17.87c.28-.36.6-.63.96-.8.36-.17.79-.26,1.28-.26h.05l-.29,1.53c-.7.01-1.21.15-1.54.42-.33.27-.56.76-.71,1.47l-.65,3.29h-1.58Z"/>
        <path class="cls-3" d="M61.73,63.94l.08-.45c-.23.21-.48.37-.75.47-.28.1-.58.15-.92.15-.9,0-1.63-.3-2.19-.89-.56-.59-.84-1.36-.84-2.32,0-.4.06-.79.18-1.16s.3-.72.55-1.07c.33-.45.73-.8,1.21-1.04.48-.24,1.01-.36,1.58-.36.43,0,.84.08,1.2.25s.69.41.97.73l.16-.84h1.55l-1.3,6.52h-1.48ZM60.68,58.65c-.56,0-1.05.22-1.46.65-.41.44-.62.96-.62,1.58,0,.54.16.98.47,1.31.31.33.73.5,1.24.5.57,0,1.06-.22,1.46-.65.4-.44.6-.98.6-1.62,0-.52-.16-.94-.48-1.27s-.72-.5-1.21-.5ZM61.33,56.57h-.78l1.31-2.07h1.26l-1.8,2.07Z"/>
        <path class="cls-3" d="M64.11,66.05l1.67-8.63h1.47l-.09.41c.25-.18.52-.32.81-.41s.61-.14.95-.14c.86,0,1.57.29,2.13.88.56.59.84,1.32.84,2.21,0,.51-.09,1-.28,1.46-.18.47-.45.88-.79,1.23-.33.34-.71.6-1.15.77-.44.17-.92.26-1.46.26-.5,0-.91-.07-1.23-.2s-.61-.36-.87-.66l-.55,2.8h-1.46ZM66.64,60.88c0,.54.16.98.47,1.31.31.33.72.5,1.22.5.58,0,1.07-.22,1.47-.65.4-.43.6-.97.6-1.61,0-.53-.16-.96-.47-1.28-.32-.32-.74-.48-1.26-.48-.57,0-1.04.21-1.43.63-.39.42-.58.95-.58,1.58Z"/>
        <path class="cls-3" d="M72.37,63.94l1.26-6.52h1.51l-1.26,6.52h-1.51ZM73.77,56.73l.28-1.42h1.51l-.28,1.42h-1.51Z"/>
        <path class="cls-3" d="M80.2,63.94l.08-.45c-.23.21-.48.37-.75.47-.28.1-.58.15-.92.15-.9,0-1.63-.3-2.19-.89-.56-.59-.84-1.36-.84-2.32,0-.4.06-.79.18-1.16s.3-.72.55-1.07c.33-.45.73-.8,1.21-1.04.48-.24,1.01-.36,1.58-.36.43,0,.84.08,1.2.25s.69.41.97.73l.56-2.95h1.53l-1.66,8.63h-1.49ZM79.16,58.65c-.56,0-1.05.22-1.46.65-.41.44-.62.96-.62,1.58,0,.54.16.98.47,1.31.31.33.73.5,1.24.5.57,0,1.06-.22,1.46-.65.4-.44.6-.98.6-1.62,0-.52-.16-.94-.48-1.27s-.72-.5-1.21-.5Z"/>
        <path class="cls-3" d="M83.29,60.97c0-.56.11-1.1.33-1.59.22-.5.54-.93.95-1.3.32-.28.67-.49,1.07-.64.4-.14.82-.22,1.27-.22.92,0,1.68.29,2.27.88.59.59.89,1.34.89,2.26,0,.52-.09,1.01-.28,1.47s-.45.88-.79,1.24c-.32.33-.71.59-1.15.76-.44.18-.92.27-1.43.27-.92,0-1.67-.3-2.26-.89-.59-.59-.88-1.34-.88-2.26ZM86.82,58.65c-.58,0-1.06.22-1.45.65-.39.43-.58.98-.58,1.64,0,.51.16.93.48,1.26s.73.49,1.22.49c.58,0,1.07-.22,1.47-.65.4-.43.6-.97.6-1.61,0-.54-.16-.97-.48-1.3-.32-.33-.74-.49-1.27-.49Z"/>
        <path class="cls-3" d="M93.64,66.05l1.68-2.82-1.18-5.82h1.61l.78,4.1,2.49-4.1h1.7l-5.32,8.63h-1.76Z"/>
        <path class="cls-3" d="M110.38,61.9c-.29.71-.73,1.26-1.3,1.64-.57.38-1.25.57-2.03.57-.92,0-1.67-.3-2.26-.89-.59-.59-.88-1.34-.88-2.26,0-.55.11-1.07.33-1.56.22-.49.54-.92.94-1.29.31-.28.67-.49,1.06-.64.39-.15.82-.22,1.27-.22.93,0,1.69.29,2.28.88s.88,1.34.88,2.26c0,.11,0,.24-.02.38-.01.14-.03.3-.06.47h-5.16c.09.48.28.84.57,1.08.28.25.65.37,1.11.37.32,0,.62-.07.88-.2.26-.13.5-.33.71-.6h1.67ZM105.61,59.96h3.54c-.11-.41-.32-.73-.62-.95s-.68-.34-1.13-.34c-.41,0-.77.11-1.09.34-.32.23-.55.54-.71.95Z"/>
        <path class="cls-3" d="M111.41,63.94l1-5.15h-.94l.27-1.36h.94c.12-.77.39-1.33.8-1.69.41-.36,1.02-.53,1.81-.53.11,0,.29,0,.54.02h.04s-.27,1.4-.27,1.4h-.04c-.19-.02-.32-.02-.39-.02-.32,0-.56.06-.71.18-.15.12-.24.34-.29.64h.98l-.27,1.36h-.98l-1.01,5.15h-1.49Z"/>
        <path class="cls-3" d="M114.92,63.94l1.26-6.52h1.51l-1.26,6.52h-1.51ZM116.32,56.73l.28-1.42h1.51l-.28,1.42h-1.51Z"/>
        <path class="cls-3" d="M124.58,61.66c-.26.77-.69,1.38-1.28,1.81-.59.43-1.3.65-2.11.65-.93,0-1.69-.29-2.28-.88-.59-.59-.88-1.34-.88-2.27,0-.55.11-1.08.33-1.57.22-.49.53-.92.94-1.28.31-.28.66-.49,1.05-.63s.81-.22,1.26-.22c.81,0,1.5.22,2.06.66s.92,1.04,1.08,1.81h-1.55c-.15-.34-.36-.61-.64-.79-.27-.18-.6-.27-.98-.27-.6,0-1.09.21-1.47.63-.38.42-.57.96-.57,1.63,0,.52.16.94.48,1.26s.73.49,1.24.49c.36,0,.69-.09.98-.26.29-.17.53-.43.73-.77h1.61Z"/>
        <path class="cls-3" d="M129.87,63.94l.08-.45c-.23.21-.48.37-.75.47s-.58.15-.92.15c-.9,0-1.63-.3-2.19-.89-.56-.59-.84-1.36-.84-2.32,0-.4.06-.79.18-1.16.12-.37.3-.72.55-1.07.33-.45.73-.8,1.21-1.04.48-.24,1.01-.36,1.58-.36.43,0,.84.08,1.2.25s.69.41.97.73l.16-.84h1.55l-1.3,6.52h-1.48ZM128.83,58.65c-.57,0-1.05.22-1.46.65-.41.44-.62.96-.62,1.58,0,.54.16.98.47,1.31.31.33.73.5,1.24.5.57,0,1.06-.22,1.46-.65.4-.44.6-.98.6-1.62,0-.52-.16-.94-.48-1.27s-.72-.5-1.21-.5Z"/>
        <path class="cls-3" d="M132.47,63.94l.24-1.35,3.34-3.78h-2.63l.25-1.4h4.62l-.23,1.31-3.35,3.81h2.99l-.24,1.4h-4.99Z"/>
      </g>
      <path class="cls-2" d="M39.19,32.56c-1.9,4.27-4.74,7.6-8.51,9.98-3.77,2.38-8.11,3.57-13.01,3.57-5.59,0-10.03-1.62-13.31-4.86C1.08,38-.35,33.83.07,28.73c.25-3.05,1.14-5.92,2.67-8.63,1.53-2.7,3.59-5.06,6.2-7.05,1.97-1.52,4.17-2.67,6.58-3.47,2.41-.79,4.96-1.19,7.64-1.19,4.88,0,8.91,1.21,12.07,3.63,3.17,2.42,5.06,5.74,5.68,9.95h-9.3c-.75-1.89-1.91-3.33-3.48-4.32-1.57-.99-3.48-1.48-5.74-1.48-3.58,0-6.61,1.16-9.09,3.47-2.48,2.31-3.87,5.3-4.17,8.96-.23,2.85.54,5.17,2.32,6.96,1.78,1.79,4.21,2.68,7.27,2.68,2.19,0,4.19-.48,6-1.44,1.81-.96,3.4-2.38,4.76-4.25h9.7Z"/>
      <path class="cls-2" d="M38.82,45.67L52.02,0h9.1l-3.57,12.29c1.48-1.04,3-1.82,4.57-2.34,1.57-.52,3.21-.78,4.92-.78,4.58,0,7.98.99,10.2,2.96,2.22,1.98,3.19,4.87,2.91,8.7-.05.72-.25,1.82-.59,3.31-.34,1.49-.79,3.21-1.37,5.17l-4.65,16.35h-9.42l5.43-19c.22-.74.41-1.48.56-2.22.15-.74.25-1.46.31-2.15.14-1.89-.27-3.33-1.24-4.32-.97-.99-2.45-1.48-4.44-1.48-2.87,0-5.24.89-7.11,2.67-1.87,1.78-3.36,4.59-4.46,8.42l-5.22,18.08h-9.14Z"/>
      <path class="cls-2" d="M122.69,33.59h9.95v.2c-.12,1.59.22,2.82,1.01,3.69.79.87,1.96,1.31,3.49,1.31,1.2,0,2.21-.32,3.04-.98.82-.65,1.27-1.47,1.34-2.46.06-.81-.2-1.56-.77-2.23-.57-.67-1.56-1.42-2.99-2.23-.76-.46-1.8-1.06-3.13-1.78-2.43-1.36-3.9-2.31-4.39-2.84-.98-1.01-1.66-2.03-2.06-3.07-.4-1.03-.56-2.14-.47-3.33.23-3.23,1.78-5.93,4.66-8.12,2.88-2.18,6.36-3.27,10.46-3.27s6.99,1,9.29,2.99c2.3,2,3.34,4.61,3.12,7.84l-.04.56-9.94-.03c.04-1.34-.23-2.36-.8-3.05-.58-.69-1.44-1.04-2.59-1.04-1.05,0-1.96.29-2.74.87-.78.58-1.2,1.28-1.25,2.09-.09,1.27,1.45,2.78,4.62,4.52.52.29.93.52,1.25.69,3.19,1.78,5.39,3.45,6.6,5.02,1.21,1.56,1.74,3.36,1.61,5.38-.24,3.48-1.82,6.39-4.77,8.72-2.94,2.33-6.52,3.49-10.74,3.49-4.57,0-8.1-1.04-10.59-3.13-2.48-2.09-3.6-4.94-3.34-8.55,0-.11.03-.31.08-.6.05-.29.07-.51.08-.66Z"/>
      <path class="cls-3" d="M161.77,45.67h-9.3l2.65-8.97h8.97l-2.33,8.97Z"/>
      <path class="cls-2" d="M117.75,9.24l-1.27,4.62c-1.52-1.78-3.32-3.12-5.41-4.04-2.09-.91-4.41-1.37-6.95-1.37-3.36,0-6.49.66-9.4,1.98-2.91,1.32-5.42,3.23-7.53,5.73-1.58,1.89-2.79,3.84-3.65,5.87-.86,2.02-1.37,4.14-1.53,6.36-.39,5.27.94,9.54,4,12.8,3.06,3.26,7.24,4.9,12.54,4.9,2,0,3.83-.28,5.5-.85,1.67-.57,3.21-1.43,4.61-2.59l-.67,2.49h8.72l10.16-35.91h-9.1Z"/>
      <path class="cls-1" d="M104.66,19.3l.81.75s.07.06.12.1l.36.26.17-.33c.04-.08.08-.16.12-.24.08-.16.15-.31.23-.44.39-.66.78-1.31,1.18-1.97.62-1.01.36-2.27-.59-2.94-.58-.4-1.26-.55-1.91-.41-.69.15-1.3.6-1.71,1.27-.15.24-.28.49-.42.73-.12.22-.24.44-.38.66-.18.3-.15.55.1.77.65.59,1.29,1.19,1.94,1.79Z"/>
      <path class="cls-1" d="M110.13,27.79c-.04-1.09-.38-1.94-1.03-2.59-.3-.3-.62-.59-.94-.88-.17-.15-.33-.3-.49-.45-.42-.39-.84-.78-1.26-1.17-.44-.41-.87-.82-1.31-1.23-.99-.92-1.98-1.84-2.97-2.75-1.17-1.08-2.34-2.16-3.51-3.24-.07-.07-.18-.16-.31-.25-.6-.36-1.23-.41-1.83-.14-.68.3-1.18.92-1.31,1.62-.11.62.07,1.21.53,1.67.34.34.71.67,1.06.98.19.17.38.34.56.51.86.79,1.72,1.59,2.58,2.38,1.26,1.17,2.51,2.34,3.76,3.51.18.17.35.34.53.5.2.19.41.39.61.58.08.08.17.15.26.22.12.1.24.19.33.3.2.23.16.58-.09.82-.27.25-.59.26-.86.03-.12-.1-.24-.21-.35-.31-.21-.19-.43-.37-.63-.56-.62-.57-1.24-1.15-1.86-1.72l-1.07-.99c-.09-.09-.17-.15-.25-.21-.82-.58-2.03-.42-2.75.37-.73.79-.75,1.99-.05,2.66.22.22.46.42.69.62.17.14.33.29.49.44l.16.15c.9.83,1.82,1.68,2.72,2.53.22.21.23.37.21.48-.04.24-.21.43-.45.53-.22.09-.44.06-.61-.06-.21-.16-.42-.33-.68-.58-1.08-.99-2.15-1.98-3.22-2.98-.57-.54-1.24-.72-1.99-.54-.73.17-1.29.73-1.5,1.48-.19.69-.02,1.4.44,1.85.23.23.48.45.72.66.19.17.39.34.57.51.41.38.81.76,1.21,1.15.3.29.61.58.91.87.09.08.19.16.28.24.12.1.22.18.32.28.23.24.2.58-.06.84-.25.25-.64.28-.9.06-.37-.31-.69-.6-1-.89-.21-.19-.41-.39-.61-.58-.32-.31-.66-.63-1-.93-.23-.2-.52-.37-.81-.48-.68-.25-1.36-.11-1.98.41-.48.4-.76.94-.78,1.5-.02.53.2,1.03.61,1.42.44.42.9.84,1.35,1.26.61.56,1.23,1.14,1.83,1.73.82.8,1.7,1.21,2.62,1.21.17,0,.34-.01.52-.04,2.54-.16,4.59-.83,6.66-2.17,1.4-.91,2.42-1.83,3.21-2.91.69-.94,1.41-1.91,1.82-3.07h0c.49-1.35.97-2.95.91-4.66Z"/>
    </g>
  </g>
</svg>