<?xml version="1.0" encoding="UTF-8"?>
<svg id="Layer_2" data-name="Layer 2" xmlns="http://www.w3.org/2000/svg" viewBox="0 0 155.61 68.33">
  <defs>
    <style>
      .cls-1 {
        fill: #0a213c;
      }

      .cls-2 {
        fill: #71f088;
      }
    </style>
  </defs>
  <g id="Capa_1" data-name="Capa 1">
    <g>
      <g>
        <path class="cls-2" d="M29.58,64.01h-2.21l-2.87-4.09h-2.5l-.73,4.09h-1.89l2.1-11.85c.92,0,1.84,0,2.75,0,.91,0,1.82,0,2.75,0,.61,0,1.14.09,1.58.27.44.18.81.42,1.11.73.29.3.51.65.66,1.05.15.39.22.81.22,1.25s-.07.91-.22,1.37c-.15.46-.38.89-.69,1.28-.32.39-.72.73-1.22,1.02s-1.09.48-1.79.58l2.84,3.94.14.34ZM23.04,53.9l-.74,4.29h3.6c.45,0,.84-.07,1.17-.21.33-.14.61-.33.83-.56.22-.23.39-.5.5-.79.11-.3.17-.6.17-.9,0-.23-.04-.45-.11-.67-.07-.22-.19-.41-.34-.58-.15-.17-.35-.31-.59-.41-.24-.11-.53-.16-.87-.16h-3.62Z"/>
        <path class="cls-2" d="M39.96,60.49h-6.76c-.03.64.16,1.15.57,1.53.42.38,1.01.57,1.77.57.21,0,.44-.02.68-.06.24-.04.47-.1.7-.17.23-.07.45-.17.65-.28.2-.11.38-.24.54-.39l.95,1.1c-.52.47-1.13.83-1.83,1.06-.7.24-1.37.35-2.01.35-.6,0-1.13-.09-1.61-.26-.47-.17-.87-.42-1.2-.74-.33-.31-.57-.7-.74-1.14s-.25-.94-.25-1.5c0-.73.14-1.41.41-2.04.27-.62.64-1.17,1.12-1.62.47-.46,1.03-.81,1.67-1.07.64-.26,1.32-.39,2.05-.39.68,0,1.27.1,1.78.31.51.21.92.52,1.22.94.3.42.48.94.54,1.57.06.63-.02,1.37-.25,2.21ZM33.49,59.02h5.05c.07-.66-.09-1.17-.47-1.5-.38-.34-.93-.51-1.64-.51-.64,0-1.23.17-1.76.51-.53.34-.92.84-1.18,1.5Z"/>
        <path class="cls-2" d="M51.59,52.19l-2.08,11.82h-1.64l.12-1.32c-.43.54-.92.92-1.47,1.15-.55.23-1.11.34-1.67.34-.53,0-1.01-.08-1.45-.24-.44-.16-.82-.39-1.13-.69-.32-.3-.56-.68-.74-1.12-.17-.44-.26-.94-.26-1.5,0-.81.14-1.54.41-2.17.27-.64.64-1.17,1.1-1.61.46-.44,1-.77,1.61-1.01.61-.23,1.27-.35,1.97-.35.25,0,.51.03.79.09s.54.15.78.28c.24.12.46.28.66.46.2.19.34.4.43.65l.85-4.78h1.74ZM46.2,57.12c-.42,0-.82.07-1.2.22-.38.15-.72.36-1.01.63-.29.28-.52.61-.69,1.01-.17.39-.26.83-.26,1.32,0,.7.21,1.25.62,1.65.41.4.94.6,1.6.6.41,0,.8-.08,1.18-.23.38-.15.72-.37,1.02-.65.3-.28.54-.62.71-1.01s.26-.81.26-1.28c0-.34-.06-.64-.17-.92-.11-.28-.27-.52-.46-.72-.2-.2-.43-.36-.71-.46-.28-.11-.57-.16-.89-.16Z"/>
        <path class="cls-2" d="M66.62,52.19l-2.08,11.82h-1.64l.12-1.32c-.43.54-.92.92-1.47,1.15-.55.23-1.11.34-1.67.34-.53,0-1.01-.08-1.45-.24-.44-.16-.82-.39-1.13-.69-.32-.3-.56-.68-.74-1.12-.17-.44-.26-.94-.26-1.5,0-.81.14-1.54.41-2.17.27-.64.64-1.17,1.1-1.61.46-.44,1-.77,1.61-1.01.61-.23,1.27-.35,1.97-.35.25,0,.51.03.79.09.28.06.53.15.78.28.24.12.46.28.66.46.2.19.34.4.43.65l.85-4.78h1.74ZM61.23,57.12c-.42,0-.82.07-1.2.22-.38.15-.72.36-1.01.63-.29.28-.52.61-.69,1.01-.17.39-.26.83-.26,1.32,0,.7.21,1.25.62,1.65.41.4.94.6,1.6.6.41,0,.8-.08,1.18-.23.38-.15.72-.37,1.02-.65.3-.28.53-.62.71-1.01.17-.39.26-.81.26-1.28,0-.34-.06-.64-.17-.92-.11-.28-.27-.52-.46-.72-.2-.2-.43-.36-.71-.46-.28-.11-.57-.16-.89-.16Z"/>
        <path class="cls-2" d="M75.6,60.49h-6.76c-.03.64.16,1.15.57,1.53.42.38,1.01.57,1.77.57.21,0,.44-.02.68-.06.24-.04.47-.1.7-.17.23-.07.45-.17.65-.28.2-.11.38-.24.54-.39l.95,1.1c-.52.47-1.13.83-1.83,1.06-.7.24-1.37.35-2.01.35-.6,0-1.13-.09-1.61-.26-.47-.17-.87-.42-1.2-.74-.33-.31-.57-.7-.74-1.14s-.25-.94-.25-1.5c0-.73.14-1.41.41-2.04.27-.62.64-1.17,1.12-1.62.47-.46,1.03-.81,1.67-1.07.64-.26,1.32-.39,2.05-.39.68,0,1.27.1,1.78.31.51.21.92.52,1.22.94.3.42.48.94.54,1.57.06.63-.02,1.37-.25,2.21ZM69.12,59.02h5.05c.07-.66-.09-1.17-.47-1.5-.38-.34-.93-.51-1.64-.51-.64,0-1.23.17-1.76.51-.53.34-.92.84-1.18,1.5Z"/>
        <path class="cls-2" d="M80.28,67.88l2.15-12.21h1.64l-.14,1.35c.42-.51.92-.89,1.5-1.14.58-.25,1.15-.38,1.72-.38s1.03.09,1.47.27c.44.18.81.43,1.12.75s.54.7.7,1.14c.16.44.25.92.25,1.44,0,.71-.13,1.37-.38,1.99-.25.62-.6,1.16-1.05,1.61-.45.46-.98.82-1.6,1.08-.62.26-1.3.4-2.05.4-.26,0-.52-.02-.79-.08-.27-.05-.53-.13-.77-.24-.24-.11-.46-.25-.66-.43-.2-.18-.35-.4-.46-.66l-.9,5.09h-1.74ZM85.74,62.5c.43,0,.83-.08,1.22-.24.38-.16.72-.37,1.01-.65.29-.28.52-.6.68-.98s.25-.79.25-1.24c0-.65-.2-1.18-.59-1.59-.39-.41-.94-.61-1.64-.61-.46,0-.88.08-1.26.24-.38.16-.71.39-.99.67s-.5.61-.65.98c-.15.37-.23.77-.23,1.18,0,.32.05.61.15.88.1.27.25.51.44.71.19.2.42.36.69.47.27.11.57.17.91.17Z"/>
        <path class="cls-2" d="M99.92,55.67h1.69c-.25,1.4-.49,2.79-.74,4.17-.24,1.38-.49,2.77-.74,4.17h-1.66l.17-1.27c-.19.27-.41.5-.66.68-.25.19-.51.34-.79.46s-.56.2-.84.25c-.28.05-.55.08-.81.08-.54,0-1.04-.08-1.49-.23-.45-.15-.84-.38-1.16-.68-.32-.3-.57-.68-.75-1.12-.18-.44-.27-.95-.27-1.52,0-.82.14-1.55.42-2.2.28-.64.66-1.18,1.13-1.62.47-.44,1.02-.77,1.65-1.01.63-.23,1.28-.35,1.97-.35.6,0,1.13.13,1.61.38.47.25.8.6.98,1.04l.27-1.23ZM96.93,57.07c-.42,0-.82.08-1.21.23-.39.15-.74.37-1.04.65-.3.28-.55.62-.74,1.02-.19.4-.28.84-.3,1.33-.01.36.04.68.14.96.11.28.26.52.46.72.2.2.44.35.72.46.28.11.58.16.9.16.6,0,1.12-.14,1.57-.41.45-.27.82-.61,1.1-1.02.28-.41.47-.86.56-1.34.09-.48.07-.92-.05-1.34-.12-.41-.36-.75-.71-1.02-.35-.27-.82-.41-1.42-.41Z"/>
        <path class="cls-2" d="M104,65.07c-.06.55.12.96.52,1.23.4.26.97.4,1.72.4.32,0,.64-.04.96-.13.33-.09.63-.24.9-.44.27-.2.51-.46.71-.79.2-.32.34-.71.42-1.17l.25-1.42c-.19.27-.42.5-.68.68-.26.19-.53.34-.81.46-.28.12-.57.21-.86.26-.29.06-.57.08-.83.08-.53,0-1.02-.08-1.46-.24-.45-.16-.83-.39-1.15-.68-.32-.3-.57-.67-.74-1.12-.17-.44-.26-.95-.26-1.53,0-.82.14-1.55.42-2.2.28-.64.66-1.18,1.14-1.62.48-.44,1.03-.77,1.66-1.01s1.28-.35,1.97-.35c.59,0,1.12.13,1.59.4s.81.63,1,1.11l.29-1.32h1.69l-1.45,8.54c-.14.79-.37,1.45-.71,1.98-.34.53-.74.95-1.2,1.27-.46.31-.96.54-1.5.68-.54.13-1.08.2-1.62.2-1.28,0-2.26-.28-2.92-.84-.66-.56-.9-1.37-.72-2.43h1.69ZM107.72,57.07c-.43,0-.84.08-1.23.23s-.73.37-1.03.65c-.3.28-.54.62-.71,1.02-.17.4-.26.85-.26,1.34,0,.71.21,1.27.63,1.67.42.41.96.61,1.64.61.6,0,1.12-.14,1.57-.41.45-.27.81-.61,1.08-1.02.27-.41.45-.86.53-1.34.08-.48.06-.92-.07-1.34-.13-.41-.37-.75-.73-1.02s-.83-.41-1.43-.41Z"/>
        <path class="cls-2" d="M118.64,55.5c.56,0,1.07.09,1.52.28.45.19.83.44,1.14.77.31.33.55.71.72,1.16.17.45.25.93.25,1.45,0,.7-.13,1.35-.39,1.96-.26.61-.62,1.14-1.08,1.59-.46.45-1.01.81-1.63,1.07-.63.26-1.31.4-2.05.4-.57,0-1.08-.09-1.53-.27-.45-.18-.82-.43-1.13-.75-.31-.32-.55-.7-.71-1.14s-.24-.92-.24-1.44c0-.7.13-1.35.39-1.97.26-.61.62-1.15,1.08-1.61.46-.46,1.01-.83,1.63-1.09.63-.26,1.3-.4,2.04-.4ZM118.35,57.11c-.45,0-.87.09-1.24.27-.38.18-.7.42-.97.71-.27.29-.48.63-.63,1.02-.15.39-.23.79-.23,1.21,0,.3.04.59.11.86.07.27.19.51.36.71.17.2.39.36.66.48.27.12.6.18,1,.18.45,0,.87-.09,1.25-.26.38-.17.71-.41.98-.69.27-.29.48-.62.63-1,.15-.38.23-.77.23-1.19,0-.32-.04-.61-.13-.89-.08-.28-.21-.52-.39-.73-.17-.21-.4-.37-.67-.5-.27-.12-.59-.19-.96-.19Z"/>
        <path class="cls-2" d="M129.74,57.72c-.27-.3-.58-.51-.92-.62-.34-.11-.72-.16-1.14-.16-.57,0-1.05.1-1.41.29-.37.19-.55.47-.55.83,0,.3.15.53.45.67.3.14.7.23,1.19.28.38.03.77.1,1.17.19.4.1.76.25,1.07.45.32.2.55.48.72.82.16.34.19.79.09,1.33-.15.78-.58,1.38-1.29,1.82-.72.43-1.62.65-2.71.65-.34,0-.67-.02-1-.07s-.64-.12-.95-.24-.59-.27-.86-.47c-.27-.2-.51-.46-.73-.76l1.13-1.23c.32.43.72.74,1.22.93.5.19.99.29,1.49.3.2,0,.41-.02.63-.06.22-.04.42-.1.6-.19.18-.08.34-.2.47-.34.14-.14.22-.31.25-.5.08-.37-.04-.64-.35-.81-.31-.17-.77-.28-1.38-.34-.36-.03-.72-.1-1.06-.19-.35-.09-.67-.22-.96-.39-.29-.17-.52-.39-.69-.66-.17-.27-.26-.6-.26-1,0-.52.13-.96.38-1.32.25-.36.57-.65.96-.87.38-.22.81-.38,1.27-.47.46-.1.91-.14,1.34-.14.64,0,1.21.08,1.69.24.48.16.92.45,1.32.87l-1.18,1.15Z"/>
      </g>
      <path class="cls-1" d="M37.16,30.87c-1.81,4.05-4.5,7.2-8.07,9.46-3.58,2.26-7.69,3.39-12.34,3.39-5.3,0-9.51-1.54-12.62-4.61C1.02,36.03-.33,32.08.07,27.25c.24-2.89,1.08-5.62,2.53-8.18,1.45-2.57,3.41-4.79,5.88-6.69,1.87-1.44,3.95-2.54,6.24-3.29,2.29-.75,4.7-1.13,7.24-1.13,4.63,0,8.45,1.15,11.45,3.44,3,2.3,4.8,5.44,5.38,9.44h-8.82c-.71-1.79-1.81-3.16-3.3-4.1-1.49-.94-3.3-1.41-5.44-1.41-3.4,0-6.27,1.1-8.62,3.29-2.35,2.2-3.67,5.03-3.95,8.49-.22,2.71.51,4.91,2.2,6.6,1.69,1.7,3.99,2.54,6.9,2.54,2.07,0,3.97-.45,5.69-1.36,1.72-.91,3.22-2.25,4.51-4.03h9.2Z"/>
      <path class="cls-1" d="M36.81,43.3L49.33,0h8.63l-3.38,11.66c1.4-.99,2.85-1.73,4.34-2.22,1.49-.49,3.04-.74,4.66-.74,4.34,0,7.56.94,9.67,2.81,2.11,1.87,3.03,4.62,2.76,8.25-.05.68-.24,1.73-.56,3.14-.32,1.41-.75,3.05-1.3,4.91l-4.41,15.51h-8.94l5.15-18.02c.21-.7.39-1.4.53-2.1.14-.7.24-1.38.29-2.04.14-1.79-.26-3.16-1.18-4.1-.92-.94-2.32-1.41-4.21-1.41-2.72,0-4.97.84-6.74,2.53-1.77,1.69-3.18,4.35-4.23,7.98l-4.95,17.15h-8.67Z"/>
      <path class="cls-1" d="M116.35,31.85h9.44v.19c-.12,1.5.21,2.67.96,3.5.75.83,1.86,1.24,3.31,1.24,1.14,0,2.1-.31,2.88-.93.78-.62,1.2-1.4,1.27-2.34.05-.77-.19-1.48-.73-2.12-.54-.64-1.48-1.34-2.83-2.11-.72-.44-1.71-1-2.97-1.69-2.3-1.29-3.69-2.19-4.17-2.69-.92-.96-1.58-1.93-1.95-2.91-.38-.98-.53-2.03-.45-3.16.21-3.06,1.69-5.63,4.42-7.7,2.73-2.07,6.03-3.1,9.92-3.1s6.63.95,8.81,2.84c2.18,1.89,3.17,4.37,2.96,7.43l-.04.53-9.42-.03c.04-1.27-.22-2.23-.76-2.89-.55-.66-1.36-.98-2.45-.98-.99,0-1.86.28-2.59.83-.74.55-1.13,1.21-1.19,1.98-.08,1.21,1.38,2.64,4.38,4.28.49.27.89.49,1.19.66,3.03,1.69,5.11,3.28,6.26,4.76,1.15,1.48,1.65,3.18,1.52,5.11-.22,3.3-1.73,6.06-4.52,8.27-2.79,2.21-6.19,3.31-10.19,3.31-4.34,0-7.69-.99-10.04-2.97-2.36-1.98-3.41-4.68-3.17-8.11,0-.1.03-.29.08-.56.04-.27.07-.48.08-.63Z"/>
      <path class="cls-2" d="M153.4,43.3h-8.82l2.52-8.5h8.51l-2.21,8.5Z"/>
      <path class="cls-1" d="M111.66,8.77l-1.2,4.38c-1.44-1.69-3.15-2.96-5.13-3.83-1.98-.86-4.18-1.3-6.6-1.3-3.18,0-6.16.63-8.92,1.88-2.76,1.26-5.14,3.07-7.14,5.43-1.5,1.79-2.65,3.65-3.46,5.56-.81,1.92-1.3,3.93-1.46,6.03-.37,5,.89,9.04,3.79,12.14,2.9,3.09,6.87,4.64,11.89,4.64,1.9,0,3.63-.27,5.22-.81,1.58-.54,3.04-1.36,4.38-2.45l-.63,2.36h8.27l9.63-34.05h-8.63ZM97.32,15.88c.12-.21.24-.42.36-.63.13-.23.26-.47.4-.69.39-.64.97-1.06,1.62-1.2.62-.13,1.26,0,1.81.39.91.63,1.15,1.82.56,2.78-.38.62-.75,1.24-1.12,1.87-.08.13-.14.27-.22.42-.04.07-.07.15-.11.23l-.16.31-.34-.25s-.08-.06-.12-.09l-.76-.71c-.61-.57-1.22-1.13-1.84-1.69-.23-.21-.26-.45-.09-.73ZM103.57,30.77h0c-.39,1.09-1.07,2.02-1.73,2.91-.75,1.02-1.72,1.9-3.05,2.76-1.96,1.27-3.91,1.91-6.31,2.06-.17.03-.33.04-.49.04-.87,0-1.7-.38-2.48-1.15-.57-.55-1.16-1.11-1.74-1.64-.43-.4-.86-.79-1.28-1.2-.39-.37-.59-.85-.57-1.35.02-.53.28-1.04.74-1.42.58-.49,1.23-.62,1.87-.39.28.1.56.26.77.46.32.29.64.59.95.88.19.18.38.37.58.55.29.27.6.54.95.84.24.21.61.18.85-.06.25-.25.27-.58.05-.8-.09-.09-.19-.18-.3-.27-.09-.07-.18-.15-.27-.23-.29-.27-.58-.55-.87-.83-.38-.36-.76-.73-1.15-1.09-.18-.17-.36-.33-.54-.49-.23-.2-.46-.4-.69-.62-.44-.42-.59-1.09-.41-1.75.2-.72.73-1.24,1.42-1.41.71-.17,1.34,0,1.89.51,1.01.95,2.03,1.89,3.06,2.83.25.23.45.4.65.55.16.12.37.14.57.06.23-.09.38-.28.43-.5.02-.1.01-.25-.2-.45-.85-.81-1.73-1.62-2.58-2.4l-.15-.14c-.15-.14-.31-.28-.47-.41-.22-.19-.44-.38-.65-.59-.66-.64-.64-1.77.05-2.53.69-.75,1.83-.9,2.61-.35.07.05.15.11.24.19l1.01.94c.59.55,1.18,1.09,1.77,1.64.2.18.4.36.6.53.11.1.22.19.33.29.25.22.56.21.81-.03.24-.23.28-.56.09-.78-.09-.1-.2-.19-.31-.28-.08-.07-.17-.14-.24-.21-.2-.18-.39-.37-.58-.55-.17-.16-.34-.32-.5-.48-1.19-1.11-2.38-2.22-3.57-3.33-.81-.76-1.63-1.51-2.44-2.26-.18-.16-.36-.32-.53-.48-.33-.3-.68-.61-1-.93-.43-.43-.61-.99-.5-1.58.12-.66.6-1.25,1.24-1.53.57-.25,1.17-.21,1.74.14.12.08.23.17.3.23,1.11,1.02,2.22,2.05,3.33,3.07.94.87,1.88,1.74,2.81,2.61.42.39.83.77,1.25,1.16.4.37.79.74,1.19,1.11.15.14.31.29.47.43.29.27.6.54.89.83.62.62.93,1.42.97,2.45.06,1.62-.4,3.14-.86,4.42Z"/>
    </g>
  </g>
</svg>